<?xml version="1.0" encoding="utf-8"?>
<!-- Generator: Adobe Illustrator 25.2.2, SVG Export Plug-In . SVG Version: 6.00 Build 0)  -->
<svg version="1.1" id="Layer_1" xmlns="http://www.w3.org/2000/svg" xmlns:xlink="http://www.w3.org/1999/xlink" x="0px" y="0px"
	 viewBox="0 0 52 52" style="enable-background:new 0 0 52 52;" xml:space="preserve">
<style type="text/css">
	.st0{fill:#FFFFFF;}
</style>
<path class="st0" d="M14.7,46.6l-6.3,1.7l-4.6-4.6l1.7-6.3l6.3-1.7l4.6,4.6L14.7,46.6z M38.9,19.8c3.5,1.1,7.4,0.2,10.1-2.5
	c2.5-2.5,3.4-5.9,2.8-9.1L47.1,13c-1.2,1.2-3.2,1.2-4.4,0L39,9.3c-1.2-1.2-1.2-3.2,0-4.4l4.7-4.7c-3.2-0.6-6.6,0.3-9,2.8
	c-2.7,2.7-3.6,6.7-2.5,10.1L13,32.3c-3.4-1-7.3-0.2-10,2.5C-1,38.7-1,45.1,3,49C6.9,53,13.3,53,17.2,49c2.7-2.7,3.6-6.6,2.5-10
	L38.9,19.8z"/>
<polygon class="st0" points="9.6,13.1 19.8,23.2 22.3,20.7 12.1,10.6 9.3,5.4 5,2.4 3.3,4.1 3.1,4.2 1.4,6 4.4,10.3 "/>
<path class="st0" d="M34,27l-7.9,7.9l15.5,15.5c1.4,1.4,3.7,1.4,5.1,0l2.7-2.7c1.4-1.4,1.4-3.7,0-5.1L34,27z"/>
</svg>
